<svg id="Capa_1" data-name="Capa 1" xmlns="http://www.w3.org/2000/svg" viewBox="0 0 679.07 149.54"><defs><style>.cls-1{fill:#cbc9c7;}.cls-2{fill:#878888;}.cls-3{fill:#1f3b78;}.cls-4{fill:#12559e;}.cls-5{fill:#236c30;}.cls-6{fill:#75b52c;}.cls-7{fill:#e96420;}.cls-8{fill:#dc0c25;}.cls-9{fill:#592365;}.cls-10{fill:#941c6c;}.cls-11{fill:#0472ad;}.cls-12{fill:#1d8ec4;}.cls-13{fill:#0974b6;}.cls-14{fill:#fcc11a;}.cls-15{fill:#b90f79;}.cls-16{fill:#d60d7c;}.cls-17{fill:#060708;}.cls-18{fill:#1d1d1b;}.cls-19{fill:#fff;}</style></defs><circle class="cls-1" cx="567.86" cy="11" r="11"/><circle class="cls-2" cx="592.63" cy="34.7" r="11"/><circle class="cls-3" cx="617.96" cy="34.7" r="11"/><circle class="cls-4" cx="592.63" cy="60.66" r="11"/><circle class="cls-5" cx="617.96" cy="60.66" r="11"/><circle class="cls-6" cx="592.63" cy="86.62" r="11"/><circle class="cls-7" cx="617.96" cy="86.62" r="11"/><circle class="cls-8" cx="642.97" cy="60.66" r="11"/><circle class="cls-9" cx="668.07" cy="60.66" r="11"/><circle class="cls-10" cx="642.97" cy="86.62" r="11"/><circle class="cls-11" cx="517.52" cy="86.62" r="11"/><circle class="cls-12" cx="542.86" cy="86.62" r="11"/><circle class="cls-13" cx="567.86" cy="86.62" r="11"/><circle class="cls-14" cx="592.63" cy="112.58" r="11"/><circle class="cls-15" cx="617.96" cy="112.58" r="11"/><circle class="cls-16" cx="592.63" cy="138.53" r="11"/><circle class="cls-17" cx="617.96" cy="138.53" r="11"/><path class="cls-18" d="M58.05,267.35h32v8.25H70v6.14H88.61v7.89H70v7.62H90.64V306H58.05Z" transform="translate(-56.1 -238.71)"/><path class="cls-18" d="M94.35,267.35h36.31v9.54H118.48V306H106.54V276.89H94.35Z" transform="translate(-56.1 -238.71)"/><path class="cls-18" d="M136.54,267.35h12V306h-12Z" transform="translate(-56.1 -238.71)"/><path class="cls-18" d="M182.82,290.18l10.46,3.16A19.27,19.27,0,0,1,190,300.7a14.49,14.49,0,0,1-5.63,4.46,21.07,21.07,0,0,1-8.55,1.5,24.84,24.84,0,0,1-10.3-1.83,16.4,16.4,0,0,1-6.9-6.44q-2.9-4.62-2.9-11.81,0-9.58,5.11-14.74t14.43-5.15q7.31,0,11.48,2.95a17.3,17.3,0,0,1,6.21,9.07l-10.54,2.35a9.27,9.27,0,0,0-1.16-2.59,7.34,7.34,0,0,0-11.92.42c-1.09,1.62-1.63,4.15-1.63,7.61,0,4.29.64,7.22,2,8.81a7.71,7.71,0,0,0,10.66.46A11.92,11.92,0,0,0,182.82,290.18Z" transform="translate(-56.1 -238.71)"/><path class="cls-18" d="M197.58,286.7q0-9.46,5.28-14.74t14.68-5.27q9.66,0,14.87,5.18t5.22,14.51a23.82,23.82,0,0,1-2.28,11.12,16.3,16.3,0,0,1-6.59,6.75A21.85,21.85,0,0,1,218,306.66a24.89,24.89,0,0,1-10.83-2.08,16.29,16.29,0,0,1-6.94-6.6A21.8,21.8,0,0,1,197.58,286.7Zm11.95.05c0,3.9.72,6.71,2.17,8.41a8.24,8.24,0,0,0,11.88.06q2.11-2.5,2.11-9c0-3.63-.74-6.29-2.2-8a7.53,7.53,0,0,0-6-2.52,7.26,7.26,0,0,0-5.81,2.56C210.25,280,209.53,282.81,209.53,286.75Z" transform="translate(-56.1 -238.71)"/><path class="cls-18" d="M243.94,267.35h15.7l6.06,23.52,6-23.52h15.69V306h-9.78V276.52L270.1,306h-8.86l-7.52-29.48V306h-9.78Z" transform="translate(-56.1 -238.71)"/><path class="cls-18" d="M311,293.21l11.37-.71a8.57,8.57,0,0,0,1.5,4.22,6.33,6.33,0,0,0,5.27,2.35,5.82,5.82,0,0,0,3.94-1.2,3.45,3.45,0,0,0,.07-5.48c-.88-.79-2.92-1.53-6.12-2.24q-7.86-1.75-11.2-4.69a9.44,9.44,0,0,1-3.38-7.46,10.15,10.15,0,0,1,1.73-5.63,11.42,11.42,0,0,1,5.19-4.17,24.28,24.28,0,0,1,9.51-1.51q7.41,0,11.3,2.75t4.62,8.77l-11.26.66a5.26,5.26,0,0,0-5.85-5,4.8,4.8,0,0,0-3.14.89,2.71,2.71,0,0,0-1.05,2.15,2.16,2.16,0,0,0,.87,1.66,9.8,9.8,0,0,0,4,1.42q7.83,1.69,11.22,3.42a11.87,11.87,0,0,1,4.93,4.28,10.94,10.94,0,0,1,1.54,5.72,12.27,12.27,0,0,1-2.06,6.86,12.83,12.83,0,0,1-5.75,4.76,23.22,23.22,0,0,1-9.3,1.62q-9.87,0-13.66-3.8A15,15,0,0,1,311,293.21Z" transform="translate(-56.1 -238.71)"/><path class="cls-18" d="M351.36,295.24h11.47V306H351.36Z" transform="translate(-56.1 -238.71)"/><path class="cls-18" d="M393.79,299.62H380.23L378.34,306H366.15l14.53-38.65h13L408.23,306H395.72Zm-2.48-8.36L387,277.37l-4.22,13.89Z" transform="translate(-56.1 -238.71)"/><path class="cls-18" d="M458.8,267.35V306h-10v-4.14a13.61,13.61,0,0,1-3.85,3.56,11,11,0,0,1-5.17,1.21,10,10,0,0,1-8.74-4.35,18,18,0,0,1-3-10.57q0-7,3.33-10.65a10.94,10.94,0,0,1,8.48-3.69,11.86,11.86,0,0,1,4.55.84,10.33,10.33,0,0,1,3.62,2.53V267.35ZM448,291.92a7.39,7.39,0,0,0-1.39-4.92,4.48,4.48,0,0,0-3.54-1.62,3.88,3.88,0,0,0-3.13,1.56q-1.28,1.55-1.27,5.22c0,2.28.43,4,1.31,5a4,4,0,0,0,3.23,1.6,4.31,4.31,0,0,0,3.42-1.61C447.59,296.1,448,294.35,448,291.92Z" transform="translate(-56.1 -238.71)"/><path class="cls-18" d="M496.43,294.66H474.91a7,7,0,0,0,1.4,3.85,5.1,5.1,0,0,0,4.06,1.82,6.1,6.1,0,0,0,3-.79,7,7,0,0,0,1.87-1.77l10.57,1A15.19,15.19,0,0,1,490,304.8q-3.44,1.83-9.84,1.83a20.05,20.05,0,0,1-8.75-1.57,12.79,12.79,0,0,1-5.29-5,15.11,15.11,0,0,1-2.09-8,14.08,14.08,0,0,1,4.2-10.62q4.2-4.06,11.62-4.06c4,0,7.17.6,9.49,1.81a12.34,12.34,0,0,1,5.3,5.28,19.3,19.3,0,0,1,1.82,9Zm-10.92-5.14a7.23,7.23,0,0,0-1.67-4.46,5.26,5.26,0,0,0-7.66.69,7.37,7.37,0,0,0-1.24,3.77Z" transform="translate(-56.1 -238.71)"/><path class="cls-18" d="M545.81,290.18l10.47,3.16A19.27,19.27,0,0,1,553,300.7a14.49,14.49,0,0,1-5.63,4.46,21.09,21.09,0,0,1-8.56,1.5,24.82,24.82,0,0,1-10.29-1.83,16.34,16.34,0,0,1-6.9-6.44q-2.9-4.62-2.9-11.81,0-9.58,5.1-14.74t14.44-5.15q7.31,0,11.48,2.95a17.3,17.3,0,0,1,6.21,9.07l-10.54,2.35a9,9,0,0,0-1.17-2.59,6.89,6.89,0,0,0-2.45-2.11,7.52,7.52,0,0,0-9.46,2.53c-1.09,1.62-1.64,4.15-1.64,7.61,0,4.29.65,7.22,2,8.81a7.72,7.72,0,0,0,10.67.46A11.82,11.82,0,0,0,545.81,290.18Z" transform="translate(-56.1 -238.71)"/><path class="cls-18" d="M562.32,295.24h11.47V306H562.32Z" transform="translate(-56.1 -238.71)"/><path class="cls-18" d="M577.19,267.35h12.49l8.7,27.81L607,267.35h12.13L604.74,306h-13Z" transform="translate(-56.1 -238.71)"/><path class="cls-18" d="M615.4,295.24h11.47V306H615.4Z" transform="translate(-56.1 -238.71)"/><path class="cls-18" d="M56.1,330V312.1H69v2.11H58.46v5.48h9.9v2.1h-9.9v6.1h11V330Z" transform="translate(-56.1 -238.71)"/><path class="cls-18" d="M83.54,328l.32,1.94a8.28,8.28,0,0,1-1.66.2,3.8,3.8,0,0,1-1.86-.38,2.09,2.09,0,0,1-.93-1,7.79,7.79,0,0,1-.27-2.59v-7.46H77.53V317h1.61v-3.21l2.19-1.32V317h2.21v1.71H81.33v7.58a4.15,4.15,0,0,0,.11,1.21,1,1,0,0,0,.38.43,1.55,1.55,0,0,0,.75.16A6.8,6.8,0,0,0,83.54,328Z" transform="translate(-56.1 -238.71)"/><path class="cls-18" d="M92,314.63V312.1h2.2v2.53ZM92,330V317h2.2v13Z" transform="translate(-56.1 -238.71)"/><path class="cls-18" d="M112.11,335v-6.35a3.89,3.89,0,0,1-1.44,1.19,4.18,4.18,0,0,1-2,.48,5.16,5.16,0,0,1-4-1.84,7.28,7.28,0,0,1-1.67-5.06,8.67,8.67,0,0,1,.68-3.5,5.09,5.09,0,0,1,2-2.35,5.31,5.31,0,0,1,2.83-.8,4.36,4.36,0,0,1,3.79,2V317h2V335Zm-6.78-11.49a5.71,5.71,0,0,0,1,3.75,3.16,3.16,0,0,0,2.51,1.25,3.05,3.05,0,0,0,2.42-1.19,5.45,5.45,0,0,0,1-3.62,6.06,6.06,0,0,0-1.07-3.89,3.19,3.19,0,0,0-2.51-1.31,3,3,0,0,0-2.42,1.22A5.88,5.88,0,0,0,105.33,323.48Z" transform="translate(-56.1 -238.71)"/><path class="cls-18" d="M132.54,330v-1.91a4.73,4.73,0,0,1-4.11,2.2,5.25,5.25,0,0,1-2.14-.44,3.48,3.48,0,0,1-1.48-1.1,4.22,4.22,0,0,1-.68-1.63,11.3,11.3,0,0,1-.13-2.05v-8h2.19v7.19a12.6,12.6,0,0,0,.14,2.32,2.28,2.28,0,0,0,.88,1.36,2.71,2.71,0,0,0,1.66.5,3.58,3.58,0,0,0,1.85-.51,2.83,2.83,0,0,0,1.23-1.38,6.89,6.89,0,0,0,.36-2.53v-7h2.2v13Z" transform="translate(-56.1 -238.71)"/><path class="cls-18" d="M153.12,325.82l2.27.28a5.47,5.47,0,0,1-2,3.09,6.74,6.74,0,0,1-8.22-.65,6.86,6.86,0,0,1-1.66-4.92,7.15,7.15,0,0,1,1.68-5.07,5.68,5.68,0,0,1,4.37-1.81,5.55,5.55,0,0,1,4.25,1.77,7,7,0,0,1,1.65,5c0,.13,0,.33,0,.59h-9.66a5,5,0,0,0,1.21,3.27,3.59,3.59,0,0,0,2.7,1.13,3.39,3.39,0,0,0,2.07-.63A4.17,4.17,0,0,0,153.12,325.82Zm-7.21-3.55h7.24a4.43,4.43,0,0,0-.83-2.45,3.36,3.36,0,0,0-2.72-1.27,3.48,3.48,0,0,0-2.55,1A4,4,0,0,0,145.91,322.27Z" transform="translate(-56.1 -238.71)"/><path class="cls-18" d="M169.25,328l.32,1.94a8.2,8.2,0,0,1-1.66.2,3.8,3.8,0,0,1-1.86-.38,2.09,2.09,0,0,1-.93-1,7.88,7.88,0,0,1-.26-2.59v-7.46h-1.62V317h1.62v-3.21L167,312.5V317h2.21v1.71H167v7.58a3.71,3.71,0,0,0,.12,1.21.88.88,0,0,0,.38.43,1.49,1.49,0,0,0,.75.16A6.81,6.81,0,0,0,169.25,328Z" transform="translate(-56.1 -238.71)"/><path class="cls-18" d="M186.16,328.4a8.21,8.21,0,0,1-2.35,1.46,6.68,6.68,0,0,1-2.43.43,4.75,4.75,0,0,1-3.28-1,3.66,3.66,0,0,1,.42-5.67,5.29,5.29,0,0,1,1.58-.72,13.84,13.84,0,0,1,2-.33,20.74,20.74,0,0,0,3.91-.76c0-.3,0-.49,0-.57a2.43,2.43,0,0,0-.63-1.9,3.69,3.69,0,0,0-2.5-.74,3.93,3.93,0,0,0-2.29.54,3.37,3.37,0,0,0-1.09,1.92l-2.15-.29a5.39,5.39,0,0,1,1-2.23,4.16,4.16,0,0,1,1.94-1.3,8.48,8.48,0,0,1,2.94-.46,7.79,7.79,0,0,1,2.7.39,3.54,3.54,0,0,1,1.52,1,3.47,3.47,0,0,1,.69,1.5,12.74,12.74,0,0,1,.11,2v2.93a29.74,29.74,0,0,0,.14,3.87,5,5,0,0,0,.55,1.56H186.6A4.54,4.54,0,0,1,186.16,328.4Zm-.19-4.91a15.86,15.86,0,0,1-3.58.83,8.32,8.32,0,0,0-1.92.44,1.92,1.92,0,0,0-.87.71,1.94,1.94,0,0,0-.3,1A1.88,1.88,0,0,0,180,328a2.89,2.89,0,0,0,1.95.59,4.54,4.54,0,0,0,2.26-.56,3.38,3.38,0,0,0,1.45-1.52,5.22,5.22,0,0,0,.35-2.19Z" transform="translate(-56.1 -238.71)"/><path class="cls-18" d="M197,326.13l2.18-.34a3.06,3.06,0,0,0,1,2,3.59,3.59,0,0,0,2.34.69,3.45,3.45,0,0,0,2.25-.61,1.85,1.85,0,0,0,.73-1.45,1.31,1.31,0,0,0-.65-1.17,9.18,9.18,0,0,0-2.24-.75,19.63,19.63,0,0,1-3.35-1.05,3.21,3.21,0,0,1-1.42-1.24,3.24,3.24,0,0,1-.48-1.73,3.29,3.29,0,0,1,.4-1.61,3.54,3.54,0,0,1,1.08-1.23,4.63,4.63,0,0,1,1.39-.64,6.87,6.87,0,0,1,1.9-.26,7.57,7.57,0,0,1,2.68.44,3.58,3.58,0,0,1,1.7,1.19,4.62,4.62,0,0,1,.76,2l-2.15.29a2.29,2.29,0,0,0-.85-1.56,3,3,0,0,0-2-.56,3.54,3.54,0,0,0-2.16.5,1.45,1.45,0,0,0-.65,1.17,1.23,1.23,0,0,0,.27.77,2,2,0,0,0,.84.58c.22.09.87.27,1.95.57a25.6,25.6,0,0,1,3.25,1,3.1,3.1,0,0,1,2,3,3.68,3.68,0,0,1-.64,2.07,4.15,4.15,0,0,1-1.85,1.5,6.82,6.82,0,0,1-2.73.53,6.12,6.12,0,0,1-3.86-1.05A4.93,4.93,0,0,1,197,326.13Z" transform="translate(-56.1 -238.71)"/><path class="cls-18" d="M229.85,335l-.24-2.06a4.81,4.81,0,0,0,1.25.19,2.5,2.5,0,0,0,1.18-.24,2.06,2.06,0,0,0,.72-.69,11.81,11.81,0,0,0,.67-1.63c0-.12.1-.3.19-.54l-4.92-13h2.37l2.7,7.51c.35.95.66,1.95.94,3a28.78,28.78,0,0,1,.9-3l2.77-7.56h2.2l-4.93,13.19a27.36,27.36,0,0,1-1.23,2.94,4.34,4.34,0,0,1-1.35,1.59,3.12,3.12,0,0,1-1.8.51A4.36,4.36,0,0,1,229.85,335Z" transform="translate(-56.1 -238.71)"/><path class="cls-18" d="M262.32,330V312.1h12.94v2.11H264.69v5.48h9.9v2.1h-9.9v6.1h11V330Z" transform="translate(-56.1 -238.71)"/><path class="cls-18" d="M285,330V317h2v1.82a4.7,4.7,0,0,1,1.63-1.53,4.49,4.49,0,0,1,2.3-.58,4.3,4.3,0,0,1,2.37.6,3.25,3.25,0,0,1,1.3,1.67,4.65,4.65,0,0,1,4-2.27,4,4,0,0,1,3,1.07,4.57,4.57,0,0,1,1,3.29V330h-2.18v-8.17a6.13,6.13,0,0,0-.21-1.9,1.9,1.9,0,0,0-.78-.93,2.37,2.37,0,0,0-1.32-.36,3.09,3.09,0,0,0-2.27.91,4,4,0,0,0-.9,2.92V330h-2.2v-8.43a3.68,3.68,0,0,0-.54-2.19,2,2,0,0,0-1.75-.74,3.27,3.27,0,0,0-1.72.49,2.82,2.82,0,0,0-1.14,1.43,8,8,0,0,0-.35,2.71V330Z" transform="translate(-56.1 -238.71)"/><path class="cls-18" d="M312.09,335V317h2v1.69a4.88,4.88,0,0,1,1.6-1.49,4.48,4.48,0,0,1,2.16-.49,5.22,5.22,0,0,1,2.93.85A5.28,5.28,0,0,1,322.7,320a8.78,8.78,0,0,1,.65,3.41,8.61,8.61,0,0,1-.72,3.58,5.42,5.42,0,0,1-4.93,3.29,4.09,4.09,0,0,1-2-.46,4.31,4.31,0,0,1-1.44-1.18V335Zm2-11.38a5.62,5.62,0,0,0,1,3.7,3.11,3.11,0,0,0,2.45,1.19,3.17,3.17,0,0,0,2.51-1.24,5.88,5.88,0,0,0,1-3.83,5.75,5.75,0,0,0-1-3.72,3.07,3.07,0,0,0-2.43-1.23,3.18,3.18,0,0,0-2.49,1.31A5.89,5.89,0,0,0,314.08,323.59Z" transform="translate(-56.1 -238.71)"/><path class="cls-18" d="M340.76,328.4a8.21,8.21,0,0,1-2.35,1.46,6.72,6.72,0,0,1-2.43.43,4.73,4.73,0,0,1-3.28-1,3.66,3.66,0,0,1,.42-5.67,5.29,5.29,0,0,1,1.58-.72,13.58,13.58,0,0,1,2-.33,20.74,20.74,0,0,0,3.91-.76c0-.3,0-.49,0-.57a2.43,2.43,0,0,0-.63-1.9,3.69,3.69,0,0,0-2.5-.74,3.91,3.91,0,0,0-2.29.54,3.37,3.37,0,0,0-1.09,1.92l-2.15-.29a5.39,5.39,0,0,1,1-2.23,4.16,4.16,0,0,1,1.94-1.3,8.48,8.48,0,0,1,2.94-.46,7.87,7.87,0,0,1,2.7.39,3.54,3.54,0,0,1,1.52,1,3.47,3.47,0,0,1,.69,1.5,12.74,12.74,0,0,1,.11,2v2.93a29.74,29.74,0,0,0,.14,3.87,4.77,4.77,0,0,0,.55,1.56H341.2A4.54,4.54,0,0,1,340.76,328.4Zm-.19-4.91a15.86,15.86,0,0,1-3.58.83,8.32,8.32,0,0,0-1.92.44,1.92,1.92,0,0,0-.87.71,1.94,1.94,0,0,0-.3,1,1.88,1.88,0,0,0,.66,1.46,2.88,2.88,0,0,0,1.95.59,4.54,4.54,0,0,0,2.26-.56,3.38,3.38,0,0,0,1.45-1.52,5.22,5.22,0,0,0,.35-2.19Z" transform="translate(-56.1 -238.71)"/><path class="cls-18" d="M360.77,335v-6.35a3.89,3.89,0,0,1-1.44,1.19,4.18,4.18,0,0,1-2,.48,5.16,5.16,0,0,1-4-1.84,7.28,7.28,0,0,1-1.67-5.06,8.67,8.67,0,0,1,.68-3.5,5.09,5.09,0,0,1,2-2.35,5.31,5.31,0,0,1,2.83-.8,4.36,4.36,0,0,1,3.79,2V317h2V335ZM354,323.48a5.71,5.71,0,0,0,1.05,3.75,3.16,3.16,0,0,0,2.51,1.25,3.05,3.05,0,0,0,2.42-1.19,5.45,5.45,0,0,0,1-3.62,6.06,6.06,0,0,0-1.07-3.89,3.19,3.19,0,0,0-2.51-1.31,3,3,0,0,0-2.42,1.22A5.88,5.88,0,0,0,354,323.48Z" transform="translate(-56.1 -238.71)"/><path class="cls-18" d="M381.2,330v-1.91a4.73,4.73,0,0,1-4.11,2.2,5.25,5.25,0,0,1-2.14-.44,3.48,3.48,0,0,1-1.48-1.1,4.22,4.22,0,0,1-.68-1.63,11.3,11.3,0,0,1-.13-2.05v-8h2.19v7.19a12.6,12.6,0,0,0,.14,2.32,2.28,2.28,0,0,0,.88,1.36,2.71,2.71,0,0,0,1.66.5,3.58,3.58,0,0,0,1.85-.51,2.83,2.83,0,0,0,1.23-1.38A6.89,6.89,0,0,0,381,324v-7h2.2v13Z" transform="translate(-56.1 -238.71)"/><path class="cls-18" d="M401.78,325.82l2.27.28a5.47,5.47,0,0,1-2,3.09,6.74,6.74,0,0,1-8.22-.65,6.86,6.86,0,0,1-1.66-4.92,7.15,7.15,0,0,1,1.68-5.07,5.68,5.68,0,0,1,4.37-1.81,5.55,5.55,0,0,1,4.25,1.77,7,7,0,0,1,1.65,5c0,.13,0,.33,0,.59h-9.67a5,5,0,0,0,1.21,3.27,3.6,3.6,0,0,0,2.71,1.13,3.38,3.38,0,0,0,2.06-.63A4.17,4.17,0,0,0,401.78,325.82Zm-7.21-3.55h7.24a4.43,4.43,0,0,0-.83-2.45,3.36,3.36,0,0,0-2.72-1.27,3.48,3.48,0,0,0-2.55,1A4,4,0,0,0,394.57,322.27Z" transform="translate(-56.1 -238.71)"/><path class="cls-18" d="M426.76,330V312.1h12.07v2.11h-9.7v5.54h8.4v2.12h-8.4V330Z" transform="translate(-56.1 -238.71)"/><path class="cls-18" d="M447.88,330V312.1h2.2V330Z" transform="translate(-56.1 -238.71)"/><path class="cls-18" d="M468.66,325.82l2.27.28a5.53,5.53,0,0,1-2,3.09,6,6,0,0,1-3.71,1.1,5.91,5.91,0,0,1-4.51-1.75,6.87,6.87,0,0,1-1.67-4.92,7.11,7.11,0,0,1,1.69-5.07,5.68,5.68,0,0,1,4.37-1.81,5.53,5.53,0,0,1,4.24,1.77,7,7,0,0,1,1.65,5c0,.13,0,.33,0,.59h-9.67a5,5,0,0,0,1.21,3.27,3.61,3.61,0,0,0,2.71,1.13,3.36,3.36,0,0,0,2.06-.63A4.25,4.25,0,0,0,468.66,325.82Zm-7.22-3.55h7.24a4.35,4.35,0,0,0-.83-2.45,3.35,3.35,0,0,0-2.72-1.27,3.48,3.48,0,0,0-2.55,1A4.09,4.09,0,0,0,461.44,322.27Z" transform="translate(-56.1 -238.71)"/><path class="cls-18" d="M478.52,330l4.74-6.74L478.88,317h2.74l2,3c.38.58.68,1.06.91,1.46.35-.54.68-1,1-1.43l2.18-3.07h2.62l-4.48,6.11,4.83,6.86H488l-2.66-4-.71-1.09L481.18,330Z" transform="translate(-56.1 -238.71)"/><path class="cls-18" d="M498.8,314.63V312.1H501v2.53Zm0,15.37V317H501v13Z" transform="translate(-56.1 -238.71)"/><path class="cls-18" d="M512.67,330h-2V312.1h2.2v6.39a4.32,4.32,0,0,1,3.55-1.75,5.43,5.43,0,0,1,2.26.48,4.59,4.59,0,0,1,1.76,1.36,6.51,6.51,0,0,1,1.08,2.1,8.69,8.69,0,0,1,.39,2.64,7.39,7.39,0,0,1-1.65,5.15,5.14,5.14,0,0,1-4,1.82,4.12,4.12,0,0,1-3.6-1.92Zm0-6.58a6.79,6.79,0,0,0,.64,3.37,3.15,3.15,0,0,0,5.3.44,5.66,5.66,0,0,0,1-3.73,5.81,5.81,0,0,0-1-3.75,3.07,3.07,0,0,0-2.44-1.2,3.14,3.14,0,0,0-2.49,1.25A5.48,5.48,0,0,0,512.64,323.42Z" transform="translate(-56.1 -238.71)"/><path class="cls-18" d="M530.8,330V312.1H533V330Z" transform="translate(-56.1 -238.71)"/><path class="cls-18" d="M551.57,325.82l2.27.28a5.47,5.47,0,0,1-2,3.09,6.74,6.74,0,0,1-8.22-.65,6.86,6.86,0,0,1-1.66-4.92,7.15,7.15,0,0,1,1.68-5.07,5.68,5.68,0,0,1,4.37-1.81,5.55,5.55,0,0,1,4.25,1.77,7,7,0,0,1,1.65,5c0,.13,0,.33,0,.59h-9.67a5,5,0,0,0,1.21,3.27,3.6,3.6,0,0,0,2.71,1.13,3.38,3.38,0,0,0,2.06-.63A4.17,4.17,0,0,0,551.57,325.82Zm-7.21-3.55h7.24a4.43,4.43,0,0,0-.83-2.45,3.36,3.36,0,0,0-2.72-1.27,3.48,3.48,0,0,0-2.55,1A4,4,0,0,0,544.36,322.27Z" transform="translate(-56.1 -238.71)"/><path class="cls-19" d="M718.2,306.5l5.63-1.2a5.75,5.75,0,0,0,5.24-1.8c1.17-1.37,2.5-1.51,3.32-.41s0,2.15-1.18,3.07c0,0-6,4.71-12.3,1.15Z" transform="translate(-56.1 -238.71)"/><path class="cls-19" d="M723.4,304.5l-5.89,1.25-.72-1.43c-1.57-3.69-1.17-6.57,1.12-9.86a10.46,10.46,0,0,1,6.74-4.3c5.22-.49,7.21,1.93,7.8,4,1.08,3.75-2.42,5.69-2.42,5.69-3.69,2.46-9.06.7-9.06.7C720.38,304.66,723.4,304.5,723.4,304.5Zm2.1-7.22s3.62-.32,2.33-2.25-3.48,0-3.48,0l-2,2.25Z" transform="translate(-56.1 -238.71)"/></svg>