<svg id="Capa_1" data-name="Capa 1" xmlns="http://www.w3.org/2000/svg" viewBox="0 0 172.55 149.54"><defs><style>.cls-1{fill:#cbc9c7;}.cls-2{fill:#878888;}.cls-3{fill:#1f3b78;}.cls-4{fill:#12559e;}.cls-5{fill:#236c30;}.cls-6{fill:#75b52c;}.cls-7{fill:#e96420;}.cls-8{fill:#dc0c25;}.cls-9{fill:#592365;}.cls-10{fill:#941c6c;}.cls-11{fill:#0472ad;}.cls-12{fill:#1d8ec4;}.cls-13{fill:#0974b6;}.cls-14{fill:#fcc11a;}.cls-15{fill:#b90f79;}.cls-16{fill:#d60d7c;}.cls-17{fill:#060708;}.cls-18{fill:#fff;}</style></defs><circle class="cls-1" cx="61.34" cy="11" r="11"/><circle class="cls-2" cx="86.11" cy="34.7" r="11"/><circle class="cls-3" cx="111.44" cy="34.7" r="11"/><circle class="cls-4" cx="86.11" cy="60.66" r="11"/><circle class="cls-5" cx="111.44" cy="60.66" r="11"/><circle class="cls-6" cx="86.11" cy="86.62" r="11"/><circle class="cls-7" cx="111.44" cy="86.62" r="11"/><circle class="cls-8" cx="136.45" cy="60.66" r="11"/><circle class="cls-9" cx="161.55" cy="60.66" r="11"/><circle class="cls-10" cx="136.45" cy="86.62" r="11"/><circle class="cls-11" cx="11" cy="86.62" r="11"/><circle class="cls-12" cx="36.34" cy="86.62" r="11"/><circle class="cls-13" cx="61.34" cy="86.62" r="11"/><circle class="cls-14" cx="86.11" cy="112.58" r="11"/><circle class="cls-15" cx="111.44" cy="112.58" r="11"/><circle class="cls-16" cx="86.11" cy="138.53" r="11"/><circle class="cls-17" cx="111.44" cy="138.53" r="11"/><path class="cls-18" d="M718.2,306.5l5.63-1.2a5.75,5.75,0,0,0,5.24-1.8c1.17-1.37,2.5-1.51,3.32-.41s0,2.15-1.18,3.07c0,0-6,4.71-12.3,1.15Z" transform="translate(-562.62 -238.71)"/><path class="cls-18" d="M723.4,304.5l-5.89,1.25-.72-1.43c-1.57-3.69-1.17-6.57,1.12-9.86a10.46,10.46,0,0,1,6.74-4.3c5.22-.49,7.21,1.93,7.8,4,1.08,3.75-2.42,5.69-2.42,5.69-3.69,2.46-9.06.7-9.06.7C720.38,304.66,723.4,304.5,723.4,304.5Zm2.1-7.22s3.62-.32,2.33-2.25-3.48,0-3.48,0l-2,2.25Z" transform="translate(-562.62 -238.71)"/></svg>